<svg xmlns="http://www.w3.org/2000/svg" viewBox="0 0 61.75 80"><defs><style>.cls-1{fill:#fff;}</style></defs><g id="Layer_2" data-name="Layer 2"><g id="art"><g id="Notches"><circle class="cls-1" cx="30.17" cy="52" r="5"/><path class="cls-1" d="M53.83,0H43.47a3.14,3.14,0,0,0-2.22.92L37.92,4.25a1,1,0,0,1-1.49,0L33.09.92A3.14,3.14,0,0,0,30.87,0H4a2.89,2.89,0,0,0-2,4.93l8.82,8.82A7.72,7.72,0,0,0,16.17,16H28.88a1.78,1.78,0,0,1,1.26,3L24,25.14a1.93,1.93,0,0,0,0,2.72l9.28,9.28a1.93,1.93,0,0,0,2.72,0l20.9-20.9a7.66,7.66,0,0,0,2.24-5.41V5.34A5.34,5.34,0,0,0,53.83,0Z"/><path class="cls-1" d="M53.93,34.76h0a1.77,1.77,0,0,0-2.52,0l-9.07,9.07a1.78,1.78,0,0,0-.12,2.36A11.14,11.14,0,0,1,33.3,64H26.38a1.21,1.21,0,0,0-1.21,1.21v4.05a.72.72,0,0,1-1.23.51l-5.11-5.11A2.25,2.25,0,0,0,17.24,64H2.72A2.71,2.71,0,0,0,.8,68.63l9.45,9.45A6.56,6.56,0,0,0,14.88,80H35.19C58.8,80,70.63,51.45,53.93,34.76Z"/></g></g></g></svg>