<svg xmlns="http://www.w3.org/2000/svg" viewBox="0 0 228.17 80.13"><defs><style>.cls-1{fill:#fff;}</style></defs><g id="Layer_2" data-name="Layer 2"><g id="art"><g id="Notches"><path class="cls-1" d="M146.74,3.43l12.14,12.13a1.92,1.92,0,0,0,3.29-1.36V2.06A1.93,1.93,0,0,0,160.24.13H148.1A1.93,1.93,0,0,0,146.74,3.43Z"/><circle class="cls-1" cx="103.17" cy="52.13" r="5"/><path class="cls-1" d="M53.83.13H43.47a3.14,3.14,0,0,0-2.22.92L37.92,4.39a1.06,1.06,0,0,1-1.49,0L33.09,1.05A3.14,3.14,0,0,0,30.87.13H4a2.89,2.89,0,0,0-2,4.93l8.82,8.82a7.72,7.72,0,0,0,5.44,2.25H28.88a1.78,1.78,0,0,1,1.26,3L24,25.27A1.93,1.93,0,0,0,24,28l9.28,9.28a1.93,1.93,0,0,0,2.72,0l20.9-20.9A7.66,7.66,0,0,0,59.17,11V5.47A5.34,5.34,0,0,0,53.83.13Z"/><path class="cls-1" d="M160.71,29.6,149.28,18.17a1.82,1.82,0,0,0-3.11,1.29V57.83a3.14,3.14,0,0,0,.92,2.22l3.34,3.34a1.06,1.06,0,0,1,0,1.49l-3.34,3.33a3.14,3.14,0,0,0-.92,2.22v7.7a2,2,0,0,0,2,2h12a2,2,0,0,0,2-2v-45A5,5,0,0,0,160.71,29.6Z"/><path class="cls-1" d="M53.93,34.89h0a1.79,1.79,0,0,0-2.52,0L42.34,44a1.78,1.78,0,0,0-.12,2.36A11.14,11.14,0,0,1,33.3,64.13H26.38a1.21,1.21,0,0,0-1.21,1.21v4a.72.72,0,0,1-1.23.51l-5.11-5.11a2.25,2.25,0,0,0-1.59-.66H2.72A2.71,2.71,0,0,0,.8,68.76l9.45,9.45a6.56,6.56,0,0,0,4.63,1.92H35.19C58.8,80.13,70.63,51.59,53.93,34.89Z"/><path class="cls-1" d="M105.59,24.13H86.3a.88.88,0,0,1-.62-1.51l3.45-3.44a3.57,3.57,0,0,0,1-2.52V3.13a3,3,0,0,0-3-3h-10a3,3,0,0,0-3,3V61.7A1.86,1.86,0,0,0,77.35,63L88.1,52.26a7,7,0,0,0,2.07-5V43.13a3,3,0,0,1,3-3h12.6a12.26,12.26,0,0,1,12.4,11.78,12,12,0,0,1-12,12.22H91.41a8.55,8.55,0,0,0-6,2.51l-9.43,9.43a2.38,2.38,0,0,0,1.68,4.06h28.56a28,28,0,0,0,28-28.79C133.74,36.09,120.84,24.13,105.59,24.13Z"/><path class="cls-1" d="M227.4,35.67l-9.62-9.61a6.58,6.58,0,0,0-4.65-1.93h-5a2,2,0,0,1-2-2v-6.2a6.21,6.21,0,0,0-1.82-4.4l-11-11a1.88,1.88,0,0,0-3.21,1.33V22.13a2,2,0,0,1-2,2h-13a3,3,0,0,0-3,3v10a3,3,0,0,0,3,3H194a.88.88,0,0,1,.62,1.51l-3.45,3.45a3.59,3.59,0,0,0-1,2.52V78.13a2,2,0,0,0,2,2h12a2,2,0,0,0,2-2v-12h0v-10h0v-14a2,2,0,0,1,2-2h17.39A2.61,2.61,0,0,0,227.4,35.67Z"/></g></g></g></svg>